:SAMPLES-PER-SECOND 30
:FULLY-SPECIFIED
:DEGREES
1
root  -116.135 38.5144 -1.47099 54.8131 87.4206 55.7272
RightUpLeg  -7.34316 -1.85862 -1.87072
RightLeg  56.1513 6.31662 -6.72142
RightFoot  25.9887 -2.59374 7.33563
RightToes  -1.74624e-010 -1.59028e-015 9.93923e-017
Spine  -2.55089 0.869241 4.43062
Spine1  12.8391 3.15908 -10.1814
HEad  -5.61057 -2.84488 5.41006
LeftShoulder1  9.93923e-017 0 1.22299e-017
LeftArm  -12.6343 37.892 -75.4556
LeftForeArm  -6.80264 -6.66069 -4.64222
LeftHand  1.14306 9.53099 -9.41072
RightShoulder  1.98785e-016 -4.96962e-017 1.55301e-017
RightArm  26.6246 -17.2752 91.1158
RightForeArm  -42.8959 19.8006 -15.4861
RightHand  1.46851 -12.9406 -4.65235
LeftUpLeg  -18.2377 -6.91185 -5.45326
LeftLeg  23.3608 1.97868 5.29897
LeftFoot  -6.68892 -0.274802 4.33468
LeftToes  2.64666e-010 -8.50449e-011 8.41596e-012
2
root  -114.65 38.8716 -1.47373 69.9896 88.2518 70.9332
RightUpLeg  -11.6581 -1.0558 -0.933538
RightLeg  56.52 7.92237 -4.15331
RightFoot  21.1537 -2.5499 8.27311
RightToes  -1.74624e-010 -1.59028e-015 9.93923e-017
Spine  -3.9642 0.00925351 3.37648
Spine1  14.2475 1.79536 -8.60269
HEad  -4.75161 -1.59904 4.95378
LeftShoulder1  9.93923e-017 0 1.22299e-017
LeftArm  -5.59104 32.0788 -78.414
LeftForeArm  -15.0499 -12.9624 -2.35263
LeftHand  1.15348 9.0356 -6.21008
RightShoulder  1.98785e-016 -4.96962e-017 1.55301e-017
RightArm  20.7679 -21.8005 91.7957
RightForeArm  -37.5619 19.0652 -10.1694
RightHand  1.55644 -13.6817 -4.46954
LeftUpLeg  -14.8044 -8.35985 -5.0949
LeftLeg  21.6898 2.94196 5.23299
LeftFoot  -7.90393 -0.211968 3.92978
LeftToes  2.64666e-010 -8.50449e-011 8.41596e-012
3
root  -112.851 39.1717 -1.44885 115.554 88.9567 116.637
RightUpLeg  -16.6461 -0.61784 0.276161
RightLeg  54.6332 9.09832 -1.9304
RightFoot  15.123 -1.95093 7.67982
RightToes  -1.74624e-010 -1.59028e-015 9.93923e-017
Spine  -4.51395 -1.41856 0.922999
Spine1  14.9514 -0.637345 -5.48751
HEad  -4.25889 -0.0371059 3.79871
LeftShoulder1  9.93923e-017 0 1.22299e-017
LeftArm  3.79932 23.5076 -80.925
LeftForeArm  -26.4419 -17.0427 0.472772
LeftHand  1.09344 7.75556 -0.391237
RightShoulder  1.98785e-016 -4.96962e-017 1.55301e-017
RightArm  13.974 -27.5579 91.6763
RightForeArm  -30.6018 17.3963 -4.26313
RightHand  1.51084 -13.7511 -3.60717
LeftUpLeg  -10.8978 -9.49784 -4.82441
LeftLeg  20.1389 3.09985 5.25101
LeftFoot  -8.96913 -0.143965 2.98775
LeftToes  2.64666e-010 -8.50449e-011 8.41596e-012
4
root  -111.112 39.2034 -1.36858 156.13 88.1932 157.448
RightUpLeg  -20.3953 -0.697602 0.85256
RightLeg  50.2233 8.9094 -1.71953
RightFoot  7.20141 -1.06666 6.02956
RightToes  -1.74624e-010 -1.59028e-015 9.93923e-017
Spine  -3.66689 -2.69353 -2.85023
Spine1  14.126 -3.11673 -1.84795
HEad  -4.00977 1.44636 2.78113
LeftShoulder1  9.93923e-017 0 1.22299e-017
LeftArm  18.3267 16.4612 -82.2116
LeftForeArm  -42.6701 -22.4048 8.07455
LeftHand  1.07793 7.5815 2.42213
RightShoulder  1.98785e-016 -4.96962e-017 1.55301e-017
RightArm  11.1012 -33.7967 90.2736
RightForeArm  -26.3281 15.8101 -0.93612
RightHand  1.32419 -12.7827 -2.51843
LeftUpLeg  -7.75859 -8.2411 -5.08046
LeftLeg  19.9475 1.02178 5.5
LeftFoot  -10.4805 -0.0699827 1.5695
LeftToes  2.64666e-010 -8.50449e-011 8.41596e-012
5
root  -109.297 39.2836 -1.28414 171.606 87.2752 173.175
RightUpLeg  -22.4746 -1.23801 1.17327
RightLeg  41.2777 7.80364 -2.11513
RightFoot  3.4945 -0.825691 5.65655
RightToes  -1.74624e-010 -1.59028e-015 9.93923e-017
Spine  -3.373 -3.76571 -5.7746
Spine1  13.9574 -5.08888 1.76539
HEad  -4.26705 2.71743 2.18318
LeftShoulder1  9.93923e-017 0 1.22299e-017
LeftArm  28.331 9.71729 -82.0737
LeftForeArm  -51.8744 -26.0898 16.8109
LeftHand  1.10096 7.76057 1.60391
RightShoulder  1.98785e-016 -4.96962e-017 1.55301e-017
RightArm  10.1766 -39.8792 87.8793
RightForeArm  -23.9978 15.04 0.222736
RightHand  1.29047 -12.4988 -2.48798
LeftUpLeg  -4.06037 -6.07337 -4.72976
LeftLeg  18.7755 -1.5488 5.24914
LeftFoot  -11.7313 -0.047302 0.925449
LeftToes  2.64666e-010 -8.50449e-011 8.41596e-012
6
root  -107.512 39.2891 -1.19188 172.394 86.2693 174.23
RightUpLeg  -23.1004 -1.77431 0.909264
RightLeg  29.8033 7.77582 -1.23721
RightFoot  2.26219 -0.629107 4.69334
RightToes  -1.74624e-010 -1.59028e-015 9.93923e-017
Spine  -3.17704 -4.81204 -8.37199
Spine1  14.3735 -6.77951 4.51954
HEad  -4.86258 3.89451 1.61463
LeftShoulder1  9.93923e-017 0 1.22299e-017
LeftArm  27.1171 1.95593 -80.5439
LeftForeArm  -46.8895 -28.4995 18.3163
LeftHand  0.99835 7.10116 0.261532
RightShoulder  1.98785e-016 -4.96962e-017 1.55301e-017
RightArm  8.27724 -45.1062 85.0211
RightForeArm  -21.6362 14.4259 0.822563
RightHand  1.45003 -13.3727 -3.41849
LeftUpLeg  -0.521762 -4.25816 -4.33643
LeftLeg  17.8381 -3.80323 4.98553
LeftFoot  -12.895 -0.0401019 0.664533
LeftToes  2.64666e-010 -8.50449e-011 8.41596e-012
7
root  -105.803 39.3962 -1.13256 179.696 85.4751 -178.001
RightUpLeg  -22.6347 -1.07966 0.764492
RightLeg  17.5116 9.40254 0.353625
RightFoot  4.2843 -0.702385 4.58442
RightToes  -1.74624e-010 -1.59028e-015 9.93923e-017
Spine  -1.94936 -5.79054 -9.28191
Spine1  14.0093 -8.26589 6.83778
HEad  -5.21357 5.27304 1.01622
LeftShoulder1  9.93923e-017 0 1.22299e-017
LeftArm  25.9985 -4.82818 -78.4017
LeftForeArm  -43.9712 -30.2791 19.1028
LeftHand  0.917846 6.50935 -0.754667
RightShoulder  1.98785e-016 -4.96962e-017 1.55301e-017
RightArm  4.809 -49.6313 81.6721
RightForeArm  -18.5337 13.3059 1.84917
RightHand  1.55005 -14.0714 -3.61498
LeftUpLeg  3.96904 -2.78851 -2.99871
LeftLeg  14.9882 -5.96322 4.1587
LeftFoot  -12.9132 -0.0371457 -0.214695
LeftToes  2.64666e-010 -8.50449e-011 8.41596e-012
8
root  -104.02 39.2643 -1.03092 -178.497 85.2584 -175.576
RightUpLeg  -21.4101 1.6079 -0.266813
RightLeg  4.91103 9.243 1.05025
RightFoot  5.94323 -0.942636 5.6398
RightToes  -1.74624e-010 -1.59028e-015 9.93923e-017
Spine  -0.398713 -6.47662 -10.0677
Spine1  13.0232 -9.28128 8.34806
HEad  -5.17318 6.79866 0.580563
LeftShoulder1  9.93923e-017 0 1.22299e-017
LeftArm  23.4659 -9.65078 -75.7726
LeftForeArm  -41.9257 -31.8469 19.8755
LeftHand  0.929265 6.55223 -1.64705
RightShoulder  1.98785e-016 -4.96962e-017 1.55301e-017
RightArm  1.90207 -53.3891 77.6658
RightForeArm  -15.743 12.0052 2.9013
RightHand  1.46869 -14.0948 -2.38882
LeftUpLeg  8.43632 -1.20678 -1.47397
LeftLeg  13.0907 -8.30933 3.23889
LeftFoot  -13.4341 -0.0416749 -1.8935
LeftToes  2.64666e-010 -8.50449e-011 8.41596e-012
9
root  -102.1 38.9732 -0.87857 -178.648 85.7804 -175.376
RightUpLeg  -20.9338 3.01365 -0.690445
RightLeg  -2.36891 7.21071 1.25501
RightFoot  4.9726 -1.0459 6.57519
RightToes  -1.74624e-010 -1.59028e-015 9.93923e-017
Spine  -0.136007 -6.84707 -10.9034
Spine1  13.1383 -9.88782 9.05204
HEad  -5.39649 8.15752 0.101494
LeftShoulder1  9.93923e-017 0 1.22299e-017
LeftArm  20.8388 -13.4057 -73.2332
LeftForeArm  -40.2898 -32.7273 20.3493
LeftHand  0.918519 6.49795 -1.17096
RightShoulder  1.98785e-016 -4.96962e-017 1.55301e-017
RightArm  1.50739 -55.4381 73.8201
RightForeArm  -14.2779 11.1692 3.50556
RightHand  1.40284 -14.1837 -1.29047
LeftUpLeg  11.8091 -0.306728 -0.27126
LeftLeg  13.5723 -9.49473 2.74278
LeftFoot  -13.4572 -0.0396901 -3.79553
LeftToes  2.64666e-010 -8.50449e-011 8.41596e-012
10
root  -100.142 38.8052 -0.7106 -172.991 86.4895 -170.074
RightUpLeg  -22.047 2.85613 0.0507219
RightLeg  -1.21266 3.77134 1.66029
RightFoot  3.01245 -0.800505 5.6419
RightToes  -1.74624e-010 -1.59028e-015 9.93923e-017
Spine  -0.908707 -7.01359 -11.2134
Spine1  13.9296 -10.432 9.57735
HEad  -5.68481 9.36553 -0.762466
LeftShoulder1  9.93923e-017 0 1.22299e-017
LeftArm  18.4212 -15.8463 -71.406
LeftForeArm  -39.239 -32.9356 20.4994
LeftHand  0.852592 6.11685 0.651203
RightShoulder  1.98785e-016 -4.96962e-017 1.55301e-017
RightArm  3.74545 -56.0764 70.6961
RightForeArm  -14.2117 11.017 3.67071
RightHand  1.45107 -14.4777 -1.53159
LeftUpLeg  13.2879 -1.83396 0.304464
LeftLeg  16.1485 -8.02784 2.77703
LeftFoot  -10.8009 0.14973 -7.2165
LeftToes  2.64666e-010 -8.50449e-011 8.41596e-012
11
root  -98.0883 38.5628 -0.522002 -159.931 86.3623 -157.644
RightUpLeg  -23.6858 2.13323 1.78865
RightLeg  5.09707 1.14996 0.869512
RightFoot  2.47615 -0.461714 3.41255
RightToes  -1.74624e-010 -1.59028e-015 9.93923e-017
Spine  -1.59096 -7.26976 -10.4024
Spine1  14.1872 -10.9119 10.1222
HEad  -5.72591 11.2798 -1.78017
LeftShoulder1  9.93923e-017 0 1.22299e-017
LeftArm  16.0389 -16.1008 -70.7411
LeftForeArm  -38.6761 -32.7635 20.4538
LeftHand  0.794165 5.8401 2.26187
RightShoulder  1.98785e-016 -4.96962e-017 1.55301e-017
RightArm  6.53142 -56.5691 68.2888
RightForeArm  -15.0164 11.3555 3.43387
RightHand  1.47832 -14.3702 -2.07356
LeftUpLeg  13.7992 -5.80937 0.970715
LeftLeg  20.1349 -4.594 2.72268
LeftFoot  -7.37696 0.617352 -12.2065
LeftToes  2.64666e-010 -8.50449e-011 8.41596e-012
